<svg width="18" height="18" viewBox="0 0 18 18" fill="none" xmlns="http://www.w3.org/2000/svg">
<path d="M16.3317 16.28L13.7278 6.9057C13.7277 6.90562 13.7277 6.90555 13.7277 6.90548C13.7225 6.8871 13.7059 6.87483 13.6874 6.87483H10.0416H9.04163V5.87483V5.65409V5.00283L9.63728 4.73949C10.2069 4.48767 10.6041 3.91826 10.6041 3.27067C10.6041 2.38711 9.88351 1.6665 8.99997 1.6665C8.11643 1.6665 7.39582 2.38711 7.39582 3.27067C7.39582 3.91826 7.79308 4.48767 8.36266 4.73949L8.95831 5.00283V5.65409V5.87483V6.87483H7.95831H4.31249C4.29397 6.87483 4.27734 6.88717 4.27218 6.90564C4.27218 6.90566 4.27217 6.90568 4.27217 6.9057L1.66819 16.2801C1.66458 16.2931 1.6674 16.3066 1.67496 16.3166C1.683 16.3271 1.69529 16.3332 1.70834 16.3332H16.2916L16.3317 16.28ZM16.3317 16.28C16.3317 16.28 16.3318 16.2801 16.3318 16.2802C16.3353 16.2933 16.3325 16.3067 16.325 16.3166L16.3317 16.28ZM10.5208 3.2707C10.5208 2.43131 9.83937 1.74987 8.99997 1.74987C8.1605 1.74987 7.47914 2.43134 7.47914 3.2707C7.47914 4.11009 8.16058 4.79153 8.99997 4.79153C9.83937 4.79153 10.5208 4.11009 10.5208 3.2707Z" stroke="#103B66" stroke-width="2"/>
</svg>
